#N canvas 0 25 1440 847 12;
#X msg 919 169 start;
#X obj 1154 225 bng 19 250 50 0 empty empty empty 0 -10 0 12 #c6feff #000000 #000000;
#X text 848 141 STREAM 1;
#X obj 1154 253 s s1b;
#X obj 971 113 r s1b;
#X obj 919 197 readsf~ 4 44100, f 34;
#X obj 919 141 r s2b;
#X msg 971 141 0;
#X obj 1038 140 * 44100;
#X obj 1038 112 r entry;
#X msg 919 329 start;
#X obj 1154 385 bng 19 250 50 0 empty empty empty 0 -10 0 12 #c6feff #000000 #000000;
#X obj 919 357 readsf~ 4 44100, f 34;
#X text 848 301 STREAM 2;
#X obj 1154 413 s s2b;
#X obj 971 301 r s2b;
#X obj 919 301 r s1b;
#X obj 835 1416 *~, f 9;
#X obj 883 169 r s;
#X obj 884 329 r s;
#X obj 1076 1113 s s2b;
#X text 680 246 ALTERNATING STREAMS (LOOP);
#X obj 919 385 s~ s2o1;
#X obj 977 385 s~ s2o2;
#X obj 1036 385 s~ s2o3;
#X obj 1095 385 s~ s2o4;
#X obj 919 225 s~ s1o1;
#X obj 977 225 s~ s1o2;
#X obj 1036 225 s~ s1o3;
#X obj 1095 225 s~ s1o4;
#X obj 895 1358 r~ s2o1;
#X obj 835 1358 r~ s1o1;
#X obj 991 740 bng 30 250 50 0 empty empty empty 0 -10 0 12 #c6ffc7 #000000 #000000;
#X obj 1082 958 metro 1000;
#X obj 991 929 tgl 19 0 empty empty empty 0 -10 0 12 #c7c6ff #000000 #000000 0 1;
#X obj 1082 985 f;
#X obj 1114 984 - 1;
#X obj 1082 1011 > 0;
#X floatatom 1114 1011 5 0 0 0 - - - 0;
#X obj 1023 826 + 1;
#X msg 1024 801 0;
#X obj 1082 1037 select 0;
#X obj 991 877 select 0, f 25;
#X obj 991 852 > 0;
#X obj 991 958 select 0;
#X obj 955 1011 s gain;
#X text 917 929 isVisitor;
#X obj 991 826 f;
#X text 840 959 fade (ms);
#X text 1195 958 countdown (sec);
#X text 1026 746 movement trigger;
#X obj 991 984 s resetMove;
#X obj 1024 776 r resetMove;
#X obj 1068 906 r resetCount;
#X obj 1082 1065 s resetCount;
#X obj 915 1062 tgl 19 0 empty empty empty 0 -10 0 12 #ff8300 #000000 #000000 0 1;
#X obj 915 1011 > 0;
#X obj 915 1036 change;
#X msg 915 1113 stop;
#X obj 915 1140 s s;
#X obj 915 1088 select 0, f 9;
#X text 878 1140 stop;
#X obj 915 984 line 0;
#X obj 1180 929 loadbang;
#X text 841 1062 isPlaying;
#X text 835 748 PLAYBACK & COUNTDOWN;
#X obj 1007 1140 + 1;
#X floatatom 975 1169 5 0 0 0 - - - 0;
#X obj 1009 1113 loadbang;
#X obj 975 1113 t b;
#X text 904 1169 playcount;
#X obj 975 1194 s visitorCount;
#X obj 310 1324 r visitorCount;
#X obj 1195 983 + 1;
#X obj 1163 1011 s visitingTime;
#X obj 324 1349 r visitingTime;
#X obj 264 1374 pack f f, f 9;
#X obj 264 1349 f, f 7;
#X obj 1163 983 f 0;
#X obj 264 1149 tgl 19 0 empty empty empty 0 -10 0 12 #ff646c #000000 #000000 0 1;
#X obj 211 1199 realtime;
#X floatatom 211 1249 8 0 0 0 - - - 0;
#X obj 211 1224 / 1000;
#X obj 264 1125 loadbang;
#X obj 211 1298 select 0;
#X obj 264 1324 t b;
#X obj 975 1140 f 0;
#X obj 292 534 metro 1000;
#X floatatom 292 633 5 0 0 0 - - - 0;
#X obj 326 584 + 1;
#X obj 292 609 f 0;
#X text 1118 1113 play;
#X obj 211 659 f, f 12;
#X obj 835 1113 s stopBang;
#X obj 821 1088 s playToggle;
#X obj 292 507 r playToggle;
#X obj 211 633 r stopBang;
#X floatatom 211 685 5 0 900 0 - - - 0;
#X obj 310 558 r entry;
#X text 332 633 playheader;
#X obj 276 344 s entry;
#X obj 264 1173 metro 0 1 permin;
#X obj 264 1423 s bela_system;
#X obj 276 320 v ep1;
#X obj 196 115 v ep1;
#X obj 240 115 v ep2;
#X obj 284 115 v ep3;
#X obj 328 115 v ep4;
#X msg 196 89 0;
#X text 100 90 ENTRY POINTS;
#X obj 196 63 loadbang;
#X floatatom 211 1009 5 0 0 0 - - - 0;
#X obj 211 1034 s entry;
#X obj 211 953 select 0 1 2 3, f 26;
#X obj 211 978 v ep1;
#X obj 255 978 v ep2;
#X obj 300 978 v ep3;
#X obj 345 978 v ep4;
#X obj 249 711 expr if($f1 >= 0 && $f1 < $f2 \, 1 \, -1);
#X obj 505 690 v ep2;
#X obj 249 782 expr if($f1 >= $f2 && $f1 < $f3 \, 2 \, -1);
#X obj 384 761 v ep2;
#X obj 519 761 v ep3;
#X obj 249 853 expr if($f1 >= $f2 && $f1 < $f3 \, 3 \, -1);
#X obj 249 924 expr if($f1 >= $f2 \, 0 \, -1);
#X obj 384 832 v ep3;
#X obj 519 832 v ep4;
#X obj 428 903 v ep4;
#X obj 384 740 r z-up;
#X obj 519 740 r z-up;
#X obj 384 811 r z-up;
#X obj 519 811 r z-up;
#X obj 428 882 r z-up;
#X obj 505 669 r z-up;
#X obj 198 320 s z-up;
#X text 254 1009 next entry point (sec);
#X text 56 783 SET NEXT ENTRY POINT;
#X text 59 1249 SHUTDOWN CLOCK & LOG;
#X text 47 300 SET INITIAL ENTRY;
#X text 335 1374 update log;
#X obj 991 521 *~ 10;
#X obj 991 551 snapshot~;
#X obj 1138 470 r z-up;
#X obj 991 682 tgl 19 0 empty empty empty 0 -10 0 12 #feffc6 #000000 #000000 0 1;
#X floatatom 991 609 4 0 0 0 - - - 0;
#X obj 991 711 metro 1000;
#X text 1013 682 isMovement;
#X obj 835 1445 dac~ 1 2 3 4, f 56;
#X obj 895 1387 r gain;
#X obj 964 1416 *~, f 9;
#X obj 1024 1387 r gain;
#X obj 1094 1415 *~, f 9;
#X obj 1154 1386 r gain;
#X obj 1224 1415 *~, f 9;
#X obj 1284 1386 r gain;
#X text 997 1321 MASTER OUT (4-CHANNEL);
#X msg 264 1398 echo \$1 plays with a total play time of \$2 seconds >> log.txt && poweroff, f 73;
#X obj 372 115 v end;
#X obj 358 584 v end;
#X obj 326 609 mod;
#X obj 369 558 r z-up;
#X obj 964 1358 r~ s1o2;
#X obj 1024 1358 r~ s2o2;
#X obj 1094 1357 r~ s1o3;
#X obj 1154 1357 r~ s2o3;
#X obj 1224 1357 r~ s1o4;
#X obj 1284 1357 r~ s2o4;
#X obj 991 633 expr if($f1 >= 5 \, 1 \, 0);
#X obj 991 657 change;
#X obj 1138 520 metro 500;
#X obj 991 491 adc~ 9 10, f 14;
#X obj 1086 550 snapshot~;
#X obj 1086 520 *~ 10;
#X obj 991 579 +;
#X text 268 1273 opening time (sec) 9 - 21;
#X obj 211 1273 > 43200;
#X obj 198 262 loadbang;
#X obj 1138 495 del 2000;
#X obj 198 291 del 500;
#X msg 1163 958 60;
#X msg 971 329 open ggs.wav;
#X msg 971 169 open ggs.wav \$1;
#X msg 372 89 1648;
#X msg 240 89 576;
#X msg 284 89 880;
#X msg 328 89 1264;
#X msg 915 958 \$1 8000;
#X connect 0 0 5 0;
#X connect 1 0 3 0;
#X connect 4 0 7 0;
#X connect 5 0 26 0;
#X connect 5 1 27 0;
#X connect 5 2 28 0;
#X connect 5 3 29 0;
#X connect 5 4 1 0;
#X connect 6 0 0 0;
#X connect 7 0 181 0;
#X connect 8 0 181 0;
#X connect 9 0 8 0;
#X connect 10 0 12 0;
#X connect 11 0 14 0;
#X connect 12 0 22 0;
#X connect 12 1 23 0;
#X connect 12 2 24 0;
#X connect 12 3 25 0;
#X connect 12 4 11 0;
#X connect 15 0 180 0;
#X connect 16 0 10 0;
#X connect 17 0 147 0;
#X connect 18 0 5 0;
#X connect 19 0 12 0;
#X connect 30 0 17 0;
#X connect 31 0 17 0;
#X connect 32 0 47 0;
#X connect 33 0 35 0;
#X connect 33 0 78 0;
#X connect 34 0 33 0;
#X connect 34 0 44 0;
#X connect 34 0 186 0;
#X connect 35 0 36 0;
#X connect 35 0 37 0;
#X connect 35 0 38 0;
#X connect 36 0 35 1;
#X connect 37 0 41 0;
#X connect 39 0 47 1;
#X connect 40 0 47 1;
#X connect 41 0 54 0;
#X connect 42 0 34 0;
#X connect 42 1 179 0;
#X connect 43 0 42 0;
#X connect 44 0 51 0;
#X connect 47 0 39 0;
#X connect 47 0 43 0;
#X connect 52 0 40 0;
#X connect 53 0 34 0;
#X connect 53 0 179 0;
#X connect 55 0 60 0;
#X connect 55 0 94 0;
#X connect 56 0 57 0;
#X connect 57 0 55 0;
#X connect 58 0 59 0;
#X connect 60 0 58 0;
#X connect 60 0 93 0;
#X connect 60 1 20 0;
#X connect 60 1 69 0;
#X connect 62 0 45 0;
#X connect 62 0 56 0;
#X connect 63 0 179 0;
#X connect 66 0 86 1;
#X connect 67 0 71 0;
#X connect 68 0 86 0;
#X connect 69 0 86 0;
#X connect 72 0 77 1;
#X connect 73 0 78 1;
#X connect 75 0 76 1;
#X connect 76 0 156 0;
#X connect 77 0 76 0;
#X connect 78 0 73 0;
#X connect 78 0 74 0;
#X connect 79 0 101 0;
#X connect 80 0 82 0;
#X connect 81 0 175 0;
#X connect 82 0 81 0;
#X connect 83 0 79 0;
#X connect 84 1 85 0;
#X connect 85 0 77 0;
#X connect 86 0 66 0;
#X connect 86 0 67 0;
#X connect 87 0 90 0;
#X connect 88 0 92 1;
#X connect 89 0 159 0;
#X connect 90 0 89 0;
#X connect 90 0 88 0;
#X connect 92 0 97 0;
#X connect 95 0 87 0;
#X connect 96 0 92 0;
#X connect 97 0 118 0;
#X connect 97 0 120 0;
#X connect 97 0 123 0;
#X connect 97 0 124 0;
#X connect 98 0 90 1;
#X connect 101 0 80 1;
#X connect 103 0 100 0;
#X connect 108 0 104 0;
#X connect 110 0 108 0;
#X connect 110 0 184 0;
#X connect 110 0 185 0;
#X connect 110 0 182 0;
#X connect 110 0 183 0;
#X connect 111 0 112 0;
#X connect 113 0 114 0;
#X connect 113 1 115 0;
#X connect 113 2 116 0;
#X connect 113 3 117 0;
#X connect 114 0 111 0;
#X connect 115 0 111 0;
#X connect 116 0 111 0;
#X connect 117 0 111 0;
#X connect 118 0 113 0;
#X connect 119 0 118 1;
#X connect 120 0 113 0;
#X connect 121 0 120 1;
#X connect 122 0 120 2;
#X connect 123 0 113 0;
#X connect 124 0 113 0;
#X connect 125 0 123 1;
#X connect 126 0 123 2;
#X connect 127 0 124 1;
#X connect 128 0 121 0;
#X connect 129 0 122 0;
#X connect 130 0 125 0;
#X connect 131 0 126 0;
#X connect 132 0 127 0;
#X connect 133 0 119 0;
#X connect 140 0 141 0;
#X connect 141 0 173 0;
#X connect 142 0 177 0;
#X connect 143 0 145 0;
#X connect 144 0 167 0;
#X connect 145 0 32 0;
#X connect 148 0 17 1;
#X connect 149 0 147 1;
#X connect 150 0 149 1;
#X connect 151 0 147 2;
#X connect 152 0 151 1;
#X connect 153 0 147 3;
#X connect 154 0 153 1;
#X connect 156 0 102 0;
#X connect 158 0 159 1;
#X connect 159 0 90 1;
#X connect 160 0 158 0;
#X connect 161 0 149 0;
#X connect 162 0 149 0;
#X connect 163 0 151 0;
#X connect 164 0 151 0;
#X connect 165 0 153 0;
#X connect 166 0 153 0;
#X connect 167 0 168 0;
#X connect 168 0 143 0;
#X connect 169 0 141 0;
#X connect 169 0 171 0;
#X connect 170 0 140 0;
#X connect 170 1 172 0;
#X connect 171 0 173 1;
#X connect 172 0 171 0;
#X connect 173 0 144 0;
#X connect 175 0 84 0;
#X connect 176 0 178 0;
#X connect 177 0 169 0;
#X connect 178 0 134 0;
#X connect 178 0 103 0;
#X connect 179 0 35 1;
#X connect 180 0 12 0;
#X connect 181 0 5 0;
#X connect 182 0 157 0;
#X connect 183 0 105 0;
#X connect 184 0 106 0;
#X connect 185 0 107 0;
#X connect 186 0 62 0;
